<?xml version="1.0" encoding="utf-8"?>
<svg width="512" height="512" viewBox="0 0 512 512" xmlns="http://www.w3.org/2000/svg">
  <defs>
    <linearGradient id="grad" x1="0%" y1="0%" x2="100%" y2="100%">
      <stop offset="0%" style="stop-color:#4A90E2;stop-opacity:1" />
      <stop offset="100%" style="stop-color:#357ABD;stop-opacity:1" />
    </linearGradient>
  </defs>
  <rect width="512" height="512" rx="80" fill="url(#grad)"/>
  <g transform="translate(128, 128) scale(2.844)">
     fill="#FFFFFF" width="512" height="512" viewBox="0 0 36 36" version="1.1"  preserveAspectRatio="xMidYMid meet" xmlns="http://www.w3.org/2000/svg" xmlns:xlink="http://www.w3.org/1999/xlink">
    
    <path class="clr-i-solid clr-i-solid-path-1" d="M18,19.84l6.38-6.35A1,1,0,1,0,23,12.08L19,16V4a1,1,0,1,0-2,0V16l-4-3.95a1,1,0,0,0-1.41,1.42Z"></path><path class="clr-i-solid clr-i-solid-path-2" d="M19.41,21.26l-.74.74H33.93c-.17-.57-.79-2.31-3.09-8.63A1.94,1.94,0,0,0,28.93,12H26.55a3,3,0,0,1-.76,2.92Z"></path><path class="clr-i-solid clr-i-solid-path-3" d="M16.58,21.26,10.2,14.91A3,3,0,0,1,9.44,12H7.07a1.92,1.92,0,0,0-1.9,1.32C2.86,19.68,2.24,21.43,2.07,22H17.33Z"></path><path class="clr-i-solid clr-i-solid-path-4" d="M2,24v6a2,2,0,0,0,2,2H32a2,2,0,0,0,2-2V24Zm28,4H26V26h4Z"></path>
    

  </g>
</svg>